<mxfile host="app.diagrams.net" modified="2022-02-28T07:57:25.343Z" agent="5.0 (X11; Linux x86_64) AppleWebKit/537.36 (KHTML, like Gecko) Chrome/93.0.4577.82 Safari/537.36" etag="eFqKS-dhlPMPw7P3K3ON" version="16.6.4" type="github">
  <diagram id="CBtYcYN0E58j1hZvyX2C" name="Page-1">
    <mxGraphModel dx="1038" dy="491" grid="1" gridSize="10" guides="1" tooltips="1" connect="1" arrows="1" fold="1" page="1" pageScale="1" pageWidth="827" pageHeight="1169" math="0" shadow="0" extFonts="Mathcal^proxy?url=http%3A%2F%2Fwww.math.union.edu%2F~dpvc%2FjsMath%2Fdownload%2Fextra-fonts%2Fcmbsy10%2F10%2FjsMath-cmbsy10.ttf">
      <root>
        <mxCell id="0" />
        <mxCell id="1" parent="0" />
        <mxCell id="RmzvHsGWgh_MH3iOrA_7-23" value="" style="rounded=1;whiteSpace=wrap;html=1;fillColor=#FFE478;strokeColor=#d79b00;" parent="1" vertex="1">
          <mxGeometry x="540" y="370" width="450" height="230" as="geometry" />
        </mxCell>
        <mxCell id="RmzvHsGWgh_MH3iOrA_7-1" value="&lt;font style=&quot;font-size: 19px&quot; color=&quot;#516a8f&quot;&gt;Environment&lt;/font&gt;" style="shape=trapezoid;perimeter=trapezoidPerimeter;whiteSpace=wrap;html=1;fillColor=#dae8fc;strokeColor=#6c8ebf;gradientColor=#7EB4D9;fontColor=#6C8EBF;" parent="1" vertex="1">
          <mxGeometry x="100" y="610" width="820" height="100" as="geometry" />
        </mxCell>
        <mxCell id="RmzvHsGWgh_MH3iOrA_7-6" value="&lt;div&gt;&lt;font style=&quot;font-size: 19px&quot;&gt;&lt;br&gt;&lt;/font&gt;&lt;/div&gt;&lt;div&gt;&lt;font style=&quot;font-size: 19px&quot;&gt;Current policy π&lt;sub&gt;θk&lt;/sub&gt;&lt;/font&gt;&lt;/div&gt;" style="shape=hexagon;perimeter=hexagonPerimeter2;whiteSpace=wrap;html=1;fillColor=#FFE478;strokeColor=#d79b00;fontColor=#876100;" parent="1" vertex="1">
          <mxGeometry x="190" y="441.25" width="140" height="87.5" as="geometry" />
        </mxCell>
        <mxCell id="RmzvHsGWgh_MH3iOrA_7-8" value="" style="endArrow=classic;html=1;entryX=0.625;entryY=1;entryDx=0;entryDy=0;" parent="1" target="RmzvHsGWgh_MH3iOrA_7-6" edge="1">
          <mxGeometry width="50" height="50" relative="1" as="geometry">
            <mxPoint x="370" y="610" as="sourcePoint" />
            <mxPoint x="410" y="570" as="targetPoint" />
            <Array as="points">
              <mxPoint x="370" y="560" />
              <mxPoint x="277" y="560" />
            </Array>
          </mxGeometry>
        </mxCell>
        <mxCell id="RmzvHsGWgh_MH3iOrA_7-9" value="&lt;font style=&quot;font-size: 19px&quot;&gt;s&lt;sub&gt;t+1&lt;/sub&gt;; r&lt;sub&gt;t&lt;br style=&quot;font-size: 19px&quot;&gt;&lt;/sub&gt;&lt;/font&gt;" style="text;html=1;align=center;verticalAlign=middle;resizable=0;points=[];labelBackgroundColor=#ffffff;" parent="RmzvHsGWgh_MH3iOrA_7-8" vertex="1" connectable="0">
          <mxGeometry x="0.1304" y="-4" relative="1" as="geometry">
            <mxPoint as="offset" />
          </mxGeometry>
        </mxCell>
        <mxCell id="RmzvHsGWgh_MH3iOrA_7-10" value="" style="endArrow=classic;html=1;exitX=0.464;exitY=0.995;exitDx=0;exitDy=0;entryX=0.281;entryY=-0.038;entryDx=0;entryDy=0;entryPerimeter=0;exitPerimeter=0;" parent="1" source="RmzvHsGWgh_MH3iOrA_7-6" target="RmzvHsGWgh_MH3iOrA_7-1" edge="1">
          <mxGeometry width="50" height="50" relative="1" as="geometry">
            <mxPoint x="280" y="670" as="sourcePoint" />
            <mxPoint x="380" y="619" as="targetPoint" />
            <Array as="points">
              <mxPoint x="255" y="580" />
              <mxPoint x="330" y="580" />
            </Array>
          </mxGeometry>
        </mxCell>
        <mxCell id="RmzvHsGWgh_MH3iOrA_7-15" value="&lt;font style=&quot;font-size: 19px&quot;&gt;a&lt;sub&gt;t&lt;/sub&gt;&lt;/font&gt;" style="text;html=1;align=center;verticalAlign=middle;resizable=0;points=[];labelBackgroundColor=#ffffff;" parent="RmzvHsGWgh_MH3iOrA_7-10" vertex="1" connectable="0">
          <mxGeometry x="-0.4645" y="-3" relative="1" as="geometry">
            <mxPoint as="offset" />
          </mxGeometry>
        </mxCell>
        <mxCell id="Fr9fYsFIPIr6GJxDXEtX-15" value="" style="edgeStyle=orthogonalEdgeStyle;rounded=0;orthogonalLoop=1;jettySize=auto;html=1;fontFamily=Helvetica;fontSize=16;fontColor=#007FFF;" parent="1" source="RmzvHsGWgh_MH3iOrA_7-18" target="RmzvHsGWgh_MH3iOrA_7-1" edge="1">
          <mxGeometry relative="1" as="geometry" />
        </mxCell>
        <mxCell id="RmzvHsGWgh_MH3iOrA_7-18" value="&lt;div style=&quot;font-size: 18px&quot;&gt;&lt;font style=&quot;font-size: 18px&quot;&gt;Set of trajectories&lt;/font&gt;&lt;/div&gt;&lt;div style=&quot;font-size: 18px&quot;&gt;&lt;font style=&quot;font-size: 18px&quot;&gt; &lt;font style=&quot;font-size: 18px&quot; face=&quot;Mathcal&quot;&gt;D&lt;font style=&quot;font-size: 18px&quot; face=&quot;Helvetica&quot;&gt;&lt;i&gt;&lt;sub&gt;k&lt;/sub&gt;&lt;/i&gt;&lt;/font&gt;&lt;/font&gt;&lt;/font&gt;&lt;/div&gt;" style="ellipse;whiteSpace=wrap;html=1;fillColor=#DAE8FC;strokeColor=#007FFF;fontColor=#516A8F;" parent="1" vertex="1">
          <mxGeometry x="351" y="445" width="125" height="80" as="geometry" />
        </mxCell>
        <mxCell id="RmzvHsGWgh_MH3iOrA_7-19" value="&lt;div style=&quot;font-size: 16px&quot;&gt;&lt;font style=&quot;font-size: 16px&quot;&gt;&amp;nbsp;Â(γ, λ)&lt;/font&gt;&lt;/div&gt;" style="rhombus;whiteSpace=wrap;html=1;fillColor=#e1d5e7;strokeColor=#9673a6;fontColor=#614A6B;" parent="1" vertex="1">
          <mxGeometry x="1030" y="426.25" width="140" height="122.5" as="geometry" />
        </mxCell>
        <mxCell id="RmzvHsGWgh_MH3iOrA_7-21" value="&lt;div style=&quot;font-size: 19px&quot;&gt;&lt;font style=&quot;font-size: 19px&quot;&gt;Policy Optimization.&lt;/font&gt;&lt;/div&gt;&lt;div style=&quot;font-size: 19px&quot;&gt;&lt;font style=&quot;font-size: 19px&quot;&gt;(Actor)&lt;/font&gt;&lt;/div&gt;&lt;div style=&quot;font-size: 19px&quot;&gt;&lt;font style=&quot;font-size: 19px&quot;&gt;--------------------&lt;br&gt;&lt;/font&gt;&lt;/div&gt;&lt;div style=&quot;font-size: 19px&quot;&gt;&lt;font style=&quot;font-size: 19px&quot;&gt;Parameters: θ&lt;/font&gt;&lt;/div&gt;" style="whiteSpace=wrap;html=1;aspect=fixed;fillColor=#FFE478;strokeColor=#D79B00;fontColor=#876100;" parent="1" vertex="1">
          <mxGeometry x="550" y="200" width="130" height="130" as="geometry" />
        </mxCell>
        <mxCell id="RmzvHsGWgh_MH3iOrA_7-22" value="" style="endArrow=classic;html=1;entryX=0;entryY=0.5;entryDx=0;entryDy=0;exitX=1;exitY=0.5;exitDx=0;exitDy=0;" parent="1" source="RmzvHsGWgh_MH3iOrA_7-6" target="RmzvHsGWgh_MH3iOrA_7-18" edge="1">
          <mxGeometry width="50" height="50" relative="1" as="geometry">
            <mxPoint x="284" y="410" as="sourcePoint" />
            <mxPoint x="330" y="380" as="targetPoint" />
            <Array as="points" />
          </mxGeometry>
        </mxCell>
        <mxCell id="RmzvHsGWgh_MH3iOrA_7-37" value="&lt;div style=&quot;font-size: 14px;&quot;&gt;.&lt;/div&gt;&lt;div style=&quot;font-size: 14px;&quot;&gt;.&lt;/div&gt;&lt;div style=&quot;font-size: 14px;&quot;&gt;.&lt;br style=&quot;font-size: 14px;&quot;&gt;&lt;/div&gt;" style="text;html=1;strokeColor=none;fillColor=none;align=center;verticalAlign=middle;whiteSpace=wrap;rounded=0;spacingTop=-18;fontSize=14;fontStyle=1" parent="1" vertex="1">
          <mxGeometry x="665" y="515" width="145" height="5" as="geometry" />
        </mxCell>
        <mxCell id="RmzvHsGWgh_MH3iOrA_7-54" value="" style="endArrow=classic;html=1;fontSize=14;" parent="1" target="RmzvHsGWgh_MH3iOrA_7-21" edge="1">
          <mxGeometry width="50" height="50" relative="1" as="geometry">
            <mxPoint x="610" y="350" as="sourcePoint" />
            <mxPoint x="650" y="270" as="targetPoint" />
            <Array as="points" />
          </mxGeometry>
        </mxCell>
        <mxCell id="RmzvHsGWgh_MH3iOrA_7-56" value="" style="endArrow=classic;html=1;fontSize=14;exitX=0.01;exitY=0.62;exitDx=0;exitDy=0;exitPerimeter=0;" parent="1" source="RmzvHsGWgh_MH3iOrA_7-21" edge="1">
          <mxGeometry width="50" height="50" relative="1" as="geometry">
            <mxPoint x="560" y="240" as="sourcePoint" />
            <mxPoint x="190" y="488" as="targetPoint" />
            <Array as="points">
              <mxPoint x="160" y="280" />
              <mxPoint x="160" y="410" />
              <mxPoint x="160" y="488" />
            </Array>
          </mxGeometry>
        </mxCell>
        <mxCell id="ZijJecFq53u-MACHuBQo-7" value="&lt;font style=&quot;font-size: 19px&quot;&gt;Policy update θ&lt;sub&gt;k+1&lt;/sub&gt;&lt;/font&gt;" style="text;html=1;align=center;verticalAlign=middle;resizable=0;points=[];labelBackgroundColor=#ffffff;" parent="RmzvHsGWgh_MH3iOrA_7-56" vertex="1" connectable="0">
          <mxGeometry x="-0.1021" y="-3" relative="1" as="geometry">
            <mxPoint as="offset" />
          </mxGeometry>
        </mxCell>
        <mxCell id="ynZLZ3Bg_vq16qwTZree-1" value="" style="endArrow=classic;html=1;exitX=1;exitY=0.5;exitDx=0;exitDy=0;entryX=0;entryY=0.5;entryDx=0;entryDy=0;" parent="1" source="RmzvHsGWgh_MH3iOrA_7-18" target="m35WSBL_48CowSra_QS6-3" edge="1">
          <mxGeometry width="50" height="50" relative="1" as="geometry">
            <mxPoint x="475.71" y="490" as="sourcePoint" />
            <mxPoint x="550" y="491.25" as="targetPoint" />
          </mxGeometry>
        </mxCell>
        <UserObject label="&lt;font style=&quot;font-size: 16px&quot; color=&quot;#876100&quot;&gt;Generalized Critic&lt;/font&gt;" placeholders="1" name="Variable" id="ePtwVaKY78PeLxzQFcq3-3">
          <mxCell style="text;html=1;strokeColor=none;fillColor=none;align=center;verticalAlign=middle;whiteSpace=wrap;overflow=hidden;" parent="1" vertex="1">
            <mxGeometry x="540" y="380" width="150" height="40" as="geometry" />
          </mxCell>
        </UserObject>
        <mxCell id="Fr9fYsFIPIr6GJxDXEtX-3" value="&lt;div&gt;&lt;font style=&quot;font-size: 19px&quot;&gt;V-Function Estimation&lt;/font&gt;&lt;/div&gt;&lt;div&gt;&lt;font style=&quot;font-size: 15px&quot;&gt;(parameters ϕ)&lt;br&gt;&lt;/font&gt;&lt;/div&gt;&lt;div&gt;&lt;font style=&quot;font-size: 15px&quot;&gt;&lt;br&gt;&lt;/font&gt;&lt;/div&gt;&lt;div&gt;&lt;font style=&quot;font-size: 15px&quot;&gt;V&lt;sub&gt;1&lt;/sub&gt;&lt;/font&gt;&lt;/div&gt;&lt;div&gt;&lt;font style=&quot;font-size: 15px&quot;&gt;&lt;br&gt;&lt;/font&gt;&lt;/div&gt;&lt;div style=&quot;font-size: 15px&quot;&gt;V&lt;sub&gt;2&lt;/sub&gt;&lt;/div&gt;&lt;div&gt;&lt;b style=&quot;font-size: 18px&quot;&gt;&lt;br&gt;&lt;/b&gt;&lt;/div&gt;&lt;div&gt;&lt;b style=&quot;font-size: 18px&quot;&gt;...&lt;/b&gt;&lt;br&gt;&lt;/div&gt;&lt;div style=&quot;font-size: 16px&quot;&gt;&lt;br&gt;&lt;/div&gt;&lt;div style=&quot;font-size: 16px&quot;&gt;V&lt;sub&gt;n&lt;/sub&gt;&lt;/div&gt;" style="rounded=0;whiteSpace=wrap;html=1;strokeColor=#666600;fillColor=#FFFF66;" parent="1" vertex="1">
          <mxGeometry x="705" y="370" width="120" height="230" as="geometry" />
        </mxCell>
        <mxCell id="Fr9fYsFIPIr6GJxDXEtX-4" value="" style="endArrow=classic;html=1;entryX=0;entryY=0.5;entryDx=0;entryDy=0;exitX=1;exitY=0.5;exitDx=0;exitDy=0;" parent="1" target="RmzvHsGWgh_MH3iOrA_7-19" edge="1" source="Fr9fYsFIPIr6GJxDXEtX-3">
          <mxGeometry width="50" height="50" relative="1" as="geometry">
            <mxPoint x="810" y="487.5" as="sourcePoint" />
            <mxPoint x="990" y="487" as="targetPoint" />
            <Array as="points" />
          </mxGeometry>
        </mxCell>
        <mxCell id="Fr9fYsFIPIr6GJxDXEtX-14" value="&lt;font data-font-src=&quot;proxy?url=http%3A%2F%2Fwww.math.union.edu%2F~dpvc%2FjsMath%2Fdownload%2Fextra-fonts%2Fcmbsy10%2F10%2FjsMath-cmbsy10.ttf&quot; face=&quot;Mathcal&quot; color=&quot;#876100&quot;&gt;F&lt;font face=&quot;Helvetica&quot;&gt;(V&lt;sub&gt;1&lt;/sub&gt;, V&lt;sub&gt;2&lt;/sub&gt;, ..., V&lt;sub&gt;n&lt;/sub&gt;)&lt;/font&gt;&lt;/font&gt;&lt;span style=&quot;white-space: pre&quot;&gt;&lt;/span&gt;" style="edgeLabel;html=1;align=center;verticalAlign=middle;resizable=0;points=[];fontSize=16;labelBackgroundColor=#FFE478;" parent="Fr9fYsFIPIr6GJxDXEtX-4" vertex="1" connectable="0">
          <mxGeometry x="-0.3779" y="3" relative="1" as="geometry">
            <mxPoint x="16" y="-14" as="offset" />
          </mxGeometry>
        </mxCell>
        <mxCell id="Fr9fYsFIPIr6GJxDXEtX-6" value="" style="endArrow=none;dashed=1;html=1;dashPattern=1 3;strokeWidth=2;rounded=0;exitX=0;exitY=0.5;exitDx=0;exitDy=0;entryX=1;entryY=0.5;entryDx=0;entryDy=0;" parent="1" source="Fr9fYsFIPIr6GJxDXEtX-3" target="Fr9fYsFIPIr6GJxDXEtX-3" edge="1">
          <mxGeometry width="50" height="50" relative="1" as="geometry">
            <mxPoint x="640" y="450" as="sourcePoint" />
            <mxPoint x="760" y="450" as="targetPoint" />
            <Array as="points" />
          </mxGeometry>
        </mxCell>
        <mxCell id="Fr9fYsFIPIr6GJxDXEtX-7" value="" style="endArrow=none;dashed=1;html=1;dashPattern=1 3;strokeWidth=2;rounded=0;exitX=0.008;exitY=0.665;exitDx=0;exitDy=0;exitPerimeter=0;entryX=1.027;entryY=0.674;entryDx=0;entryDy=0;entryPerimeter=0;" parent="1" source="Fr9fYsFIPIr6GJxDXEtX-3" edge="1" target="Fr9fYsFIPIr6GJxDXEtX-3">
          <mxGeometry width="50" height="50" relative="1" as="geometry">
            <mxPoint x="640" y="495" as="sourcePoint" />
            <mxPoint x="760" y="518" as="targetPoint" />
            <Array as="points" />
          </mxGeometry>
        </mxCell>
        <mxCell id="Fr9fYsFIPIr6GJxDXEtX-8" value="" style="endArrow=none;dashed=1;html=1;dashPattern=1 3;strokeWidth=2;rounded=0;entryX=0.992;entryY=0.353;entryDx=0;entryDy=0;entryPerimeter=0;exitX=0.008;exitY=0.349;exitDx=0;exitDy=0;exitPerimeter=0;" parent="1" source="Fr9fYsFIPIr6GJxDXEtX-3" target="Fr9fYsFIPIr6GJxDXEtX-3" edge="1">
          <mxGeometry width="50" height="50" relative="1" as="geometry">
            <mxPoint x="490" y="500" as="sourcePoint" />
            <mxPoint x="540" y="450" as="targetPoint" />
            <Array as="points" />
          </mxGeometry>
        </mxCell>
        <mxCell id="Fr9fYsFIPIr6GJxDXEtX-9" value="" style="endArrow=none;dashed=1;html=1;dashPattern=1 3;strokeWidth=2;rounded=0;exitX=0;exitY=0.833;exitDx=0;exitDy=0;exitPerimeter=0;entryX=1.02;entryY=0.837;entryDx=0;entryDy=0;entryPerimeter=0;" parent="1" source="Fr9fYsFIPIr6GJxDXEtX-3" edge="1" target="Fr9fYsFIPIr6GJxDXEtX-3">
          <mxGeometry width="50" height="50" relative="1" as="geometry">
            <mxPoint x="650" y="554" as="sourcePoint" />
            <mxPoint x="770" y="560" as="targetPoint" />
            <Array as="points" />
          </mxGeometry>
        </mxCell>
        <mxCell id="Fr9fYsFIPIr6GJxDXEtX-11" value="" style="endArrow=none;html=1;rounded=0;fontSize=16;exitX=0.45;exitY=0.019;exitDx=0;exitDy=0;exitPerimeter=0;" parent="1" source="RmzvHsGWgh_MH3iOrA_7-18" edge="1">
          <mxGeometry width="50" height="50" relative="1" as="geometry">
            <mxPoint x="830" y="500" as="sourcePoint" />
            <mxPoint x="610" y="350" as="targetPoint" />
            <Array as="points">
              <mxPoint x="407" y="350" />
            </Array>
          </mxGeometry>
        </mxCell>
        <mxCell id="Fr9fYsFIPIr6GJxDXEtX-13" value="" style="endArrow=none;html=1;rounded=0;fontSize=16;exitX=0.5;exitY=0;exitDx=0;exitDy=0;" parent="1" source="RmzvHsGWgh_MH3iOrA_7-19" edge="1">
          <mxGeometry width="50" height="50" relative="1" as="geometry">
            <mxPoint x="1120" y="340" as="sourcePoint" />
            <mxPoint x="610" y="350" as="targetPoint" />
            <Array as="points">
              <mxPoint x="1100" y="350" />
            </Array>
          </mxGeometry>
        </mxCell>
        <mxCell id="m35WSBL_48CowSra_QS6-7" value="" style="edgeStyle=orthogonalEdgeStyle;rounded=0;orthogonalLoop=1;jettySize=auto;html=1;fontColor=#000000;" edge="1" parent="1" source="m35WSBL_48CowSra_QS6-3" target="Fr9fYsFIPIr6GJxDXEtX-3">
          <mxGeometry relative="1" as="geometry" />
        </mxCell>
        <mxCell id="m35WSBL_48CowSra_QS6-3" value="&lt;div style=&quot;font-size: 18px&quot;&gt;Bootstrap (optional)&lt;/div&gt;" style="ellipse;whiteSpace=wrap;html=1;fillColor=#DAE8FC;strokeColor=#007FFF;fontColor=#516A8F;" vertex="1" parent="1">
          <mxGeometry x="555" y="445" width="125" height="80" as="geometry" />
        </mxCell>
      </root>
    </mxGraphModel>
  </diagram>
</mxfile>
